<svg xmlns="http://www.w3.org/2000/svg" width="227" height="227" stroke="#000" stroke-linecap="round" stroke-linejoin="round" fill="#fff" fill-rule="evenodd"><path d="M206.237 11.9938c-3.1731 7.6169-7.2363 14.8308-12.1041 21.4912C165.2122 4.4123 122.8924-6.8145 83.385 4.1047S13.3067 46.3978 3.3834 86.2064s2.3391 81.8824 32.0896 110.1034l4.1987 3.7106c32.6712 27.5586 78.0271 34.4309 117.3816 17.7859s66.048-53.9913 69.0834-96.6519c3.0978-28.955-5.3953-65.5651-19.8962-109.1571zM51.6342 196.969c-2.4725 3.0585-6.5424 4.3241-10.3106 3.2063s-6.4928-4.3979-6.9021-8.3112 1.5765-7.6874 5.0318-9.5626a9.707 9.707 0 0 1 10.7507.998c4.1622 3.381 4.8023 9.4985 1.4302 13.6695zm154.1355-34.023c-28.0388 37.3898-87.9045 24.8084-126.2879 26.5875 0 0-6.8043.4005-13.6547 1.524l5.8874-2.3497c26.9555-9.3918 39.6969-11.1993 56.0705-19.6341 30.8285-15.6896 61.3242-50.0493 67.6613-85.7663-11.7289 34.3596-47.3438 63.9065-79.7619 75.9067-22.2186 8.1974-62.3579 16.1822-62.3579 16.1822l-1.6179-.8683C24.3991 161.2023 23.56 101.9952 73.2227 82.8927c21.7477-8.3852 42.5538-3.7815 66.0398-9.3917 25.0791-5.9647 54.095-24.8085 65.9018-49.3192 13.2051 39.2682 29.115 100.7293.5877 138.75z" fill="#9467f8" fill-rule="nonzero" stroke="none"/></svg>